<svg viewBox="0 0 200 200" xml:space="preserve" xmlns="http://www.w3.org/2000/svg" enable-background="new 0 0 200 200"><path d="M170.8 63.1c-.2-.9-.6-2-1.2-2.8-.5-.9-1.4-1.5-2.4-1.6-.9-.2-2.3 0-2.8 0l-15.4-.2c-10.3-.1-20.6-.2-31-.4-20.6-.2-41.2-.4-61.8-.5-5-.3-10.3-.9-15.8-.8-1.4 0-2.8.1-4.3.3-.4.1-.8.1-1.2.2-.4.1-.7.2-1.5.4-1.2.4-2.3 1.1-3 2.2-.3.6-.6 1.1-.9 1.7-.2.7-.4 1.2-.4 1.6-.2.9-.2 1.6-.3 2.4-.1 1.5-.1 2.9 0 4.2.1 2.7.4 5.4.6 7.9.1 1.3.2 2.5.2 3.5v28.9c0 3.2 0 6.2-.1 9.4s-.1 6.3-.1 9.6c0 1.6 0 3.2.1 4.9l.1 2.5v2.3c.1.8.3 1.3.7 1.8.4.6.9.9 1.5 1.2.7.3 1.5.4 2.2.6 1.4.4 2.2.5 3.2.6 1.9.2 3.6.2 5.3.1 3.4-.2 6.4-.6 9.3-.5h94.6c12 0 21.7-1.6 21.7-3.5.4 0 .8-1.4.9-4.1l1.2-61.8c.1-2.3.6-4.9.5-7.8.3-.7.3-1.4.1-2.3zM52.2 135.6c-3.4 0-6.7.4-9.6.5-1.5.1-2.9.1-4.2-.1-.6-.1-1.3-.2-1.4-.2l-.1-2.2c-.1-1.5-.1-3.1-.1-4.6 0-3.1 0-6.2.1-9.4.1-3.1.1-6.4.1-9.5V81.2c0-1.5-.2-2.9-.3-4.2-.3-2.6-.5-5.1-.6-7.6-.1-1.2-.1-2.4 0-3.5 0-.5.1-1.1.2-1.5 0-.3.1-.4.1-.3.1 0 .3-.1.4-.1.2-.1.5-.1.7-.1 1-.2 2.2-.2 3.4-.3 4.9-.1 9.9.3 15.2.6.6 0 1.4.1 2.1.1h13.5l15.5-.1 31-.3c5.2-.1 10.4-.1 15.6-.2-.1.4-.2.8-.2 1.3v27.8c0 14.3.8 28.5 2.4 42.8H52.2zm86 0c1.5-14.2 2.4-28.5 2.4-42.8V65c0-.5-.1-.9-.2-1.4 2.9 0 5.8-.1 8.7-.1l7.7-.1 3.9-.1c1.3 0 2.5 0 4-.1l1-.1c.2 0 .5.1.6.3.1.2.2.4.3.7.1.3.2.9.2 1.5.1 2.3-.3 4.8-.3 7.6l1.2 61.8c0 1.5.2 2.6.4 3.3-2.1-1.6-10.8-2.8-21.2-2.8h-8.7z" fill="#ff6333" class="fill-000000"></path><path d="M126.4 77.5c-.1-.4-.2-.9-.4-1.5-.4-1.2-1-2.3-2.1-3-.5-.3-1.1-.5-1.8-.6-.3-.1-.6-.1-.9-.2-.3 0-.5-.1-.7-.1-1.8-.1-3.4 0-4.9.2-.8.1-1.5.1-2.2.1h-2.1l-4.6-.1-9.2-.2-36.6-.6c-3-.2-6.1-.6-9.6-.4-.4 0-.9 0-1.4.1h-.3l-.5.1-1.1.3c-1.4.4-2.7 1.2-3.5 2.4-.2.3-.3.6-.5.9-.1.3-.2.7-.3 1.1-.1.4-.1.7-.2 1.1-.1.3-.1.8-.1 1v2.6c.1 1.6.2 3.2.3 4.7l.1 1.1v17.2l-.1 1.5-.5 6.6c-.1 2.2-.3 4.5-.3 6.8 0 1.2 0 2.3.1 3.6l.1.5c0 .3.1.5.1.8.1.5.2 1.1.4 1.6.3 1 .9 1.9 1.6 2.6.5.3 1 .7 1.6.9.6.2 1.2.3 1.9.3h1.9l1.1-.1c1.4-.1 2.9-.3 3.7-.3H111c7.1 0 12.9-1.6 12.9-3.5.4 0 .8-.8.9-2.4l.6-18.3.3-9.2c.1-2.8.6-6 .8-9.1.1-1.6.2-3.1.2-4.7 0-.8 0-1.6-.1-2.5 0-.4-.1-.8-.2-1.3zm-47.1 44H55.5c-1.8 0-3 .2-4.2.3l-1 .1v-.3c-.1-.9-.1-1.9-.1-2.9 0-2.1.1-4.2.3-6.3l.5-6.5V86.2l-.1-1.2c-.1-1.6-.3-3-.4-4.5 0-.7-.1-1.4 0-2v-.1h.2c.3 0 .6-.1.9-.1 2.7-.1 5.7.1 8.8.3l1.2.1h8.2l9.2-.1 18.4-.3 9.2-.2 4.6-.1H113.6c.9-.1 1.6-.2 2.4-.3 1.5-.2 3-.4 4.2-.3H120.8c.1 0 .3 0 .4.1.2.1.4.4.5.6 0 .1.1.4.2.7.1.3.1.6.2 1 .1.7.2 1.4.2 2.1.1 1.4.1 2.9.1 4.4 0 3-.3 6-.3 9.2l.3 9.2.6 18.3c0 .5.1.9.2 1.2-1.8-1.4-6.5-2.4-12.1-2.4H79.3zM156.3 123.5c-.6-.3-1.5-.4-2.5-.4H152h.1-.1c.1-.1 0-.1.2-.2s.4 0 .7.1c.1 0 .5.1.9.1s.8 0 .9-.2c.4-.8.3-2.2-.7-3.2-.9-.9-2.2-1.4-3.6-1.2-.7.1-1.4.4-2.1.9-.7.5-1.2 1.2-1.5 2-.2.4-.3.8-.3 1.2-.1.4-.1.8 0 1.1 0 .7.3 1.7.8 2.4.6.9 1.5 1.6 2.4 2 .9.4 1.9.5 2.8.4.9-.1 1.9-.4 2.7-1.1.8-.6 1.6-1.6 1.8-2.6.3-.6 0-1-.7-1.3zM150.8 71.6h-4.4c-.3 0-.6 1.6-.6 3.5 0 2 .3 3.5.6 3.5h4.4c2.4 0 4.8-.9 7.2-2.6.2-.1.2-1.7 0-1.8-2.4-1.7-4.8-2.6-7.2-2.6zM150.8 81.4h-4.4c-.3 0-.6 1.6-.6 3.5 0 2 .3 3.5.6 3.5h4.4c2.4 0 4.8-.9 7.2-2.6.2-.1.2-1.7 0-1.8-2.4-1.8-4.8-2.6-7.2-2.6z" fill="#ff6333" class="fill-000000"></path><path d="M97.5 85.9c-1-.6-2.1-.9-3.3-1-1.1-.1-2.3 0-3.3.2-2.1.4-3.8 1.3-5.4 2.1-1.6.8-3 1.7-4.3 2.4-1.6.9-3.1 1.5-4.2 1.5-.5 0-1-.1-1.5-.3-.5-.2-1-.6-1.6-1.1-.5-.5-2.1.1-3.6 1.3s-2.1 3-1.2 3.9c1 .9 2.1 1.8 3.5 2.4 1.4.6 3 .9 4.6.9 3.1-.2 5.5-1.3 7.4-2.4 3.2-1.8 5.7-4 8-5.2 1.2-.6 2.2-1 3.4-.9 1.2.1 2.7.7 4 1.7.4.2 1.6-.7 1.4-1.2-.7-1.5-1.9-3.2-3.9-4.3zM97.5 103.8c-1-.6-2.1-.9-3.3-1-1.1-.1-2.3 0-3.3.2-2.1.4-3.8 1.3-5.4 2.1-1.6.8-3 1.7-4.3 2.4-1.6.9-3.1 1.5-4.2 1.5-.5 0-1-.1-1.5-.3-.5-.2-1-.6-1.6-1.1-.5-.5-2.1.1-3.6 1.3s-2.1 3-1.2 3.9c1 .9 2.1 1.8 3.5 2.4 1.4.6 3 .9 4.6.9 3.1-.2 5.5-1.3 7.4-2.4 3.2-1.8 5.7-4 8-5.2 1.2-.6 2.2-1 3.4-.9 1.2.1 2.7.7 4 1.7.4.2 1.6-.7 1.4-1.2-.7-1.6-1.9-3.3-3.9-4.3z" fill="#ff6333" class="fill-000000"></path></svg>