<svg viewBox="0 0 512 512" xmlns="http://www.w3.org/2000/svg"><path d="M166.852 148.196h19.505v24.871a11.06 11.06 0 0 0 19.027 7.687l27.417-28.397a13.694 13.694 0 0 1 9.801-4.16h23.483a23.867 23.867 0 0 0 23.84-23.84V44.15a23.868 23.868 0 0 0-23.84-23.84h-99.232a23.867 23.867 0 0 0-23.84 23.84v80.205a23.867 23.867 0 0 0 23.84 23.84Zm-11.84-104.045a11.854 11.854 0 0 1 11.84-11.84h99.233a11.854 11.854 0 0 1 11.84 11.84v80.205a11.854 11.854 0 0 1-11.84 11.84h-23.482a25.76 25.76 0 0 0-18.435 7.826l-25.81 26.733v-23.037a11.535 11.535 0 0 0-11.522-11.522h-19.984a11.854 11.854 0 0 1-11.84-11.84ZM361.164 170.488l48.98-47.601 8.363 8.605-48.98 47.601zM368.263 142.365a9.49 9.49 0 1 0-9.49-9.49 9.49 9.49 0 0 0 9.49 9.49ZM408.93 162.439a9.49 9.49 0 1 0 9.49 9.49 9.49 9.49 0 0 0-9.49-9.49Z" fill="#ff6333" class="fill-000000"></path><path d="M209.373 123.769h11.5v-10.462a18.326 18.326 0 0 0-1.838-36.56h-5.096a5.463 5.463 0 1 1 0-10.926h23.218V54.32h-14.938V43.952h-11.5v10.684a16.96 16.96 0 0 0 3.22 33.611h5.096a6.827 6.827 0 0 1 0 13.653h-23.254v11.5h13.592ZM461.578 135.175c-2.209-1.777-5.546-4.462-6-5.86-.514-1.584.59-5.71 1.396-8.723 1.655-6.183 3.53-13.19-.5-18.73-4.064-5.583-11.349-5.957-17.778-6.287-3.085-.158-7.31-.375-8.607-1.318-1.254-.913-2.742-4.823-3.83-7.679-2.307-6.059-4.921-12.925-11.562-15.08-6.423-2.088-12.458 1.827-17.776 5.281-2.656 1.727-6.295 4.09-8.05 4.09s-5.394-2.364-8.052-4.09c-5.317-3.455-11.346-7.369-17.774-5.282-6.642 2.156-9.256 9.022-11.562 15.08-1.088 2.856-2.576 6.766-3.83 7.679-1.298.944-5.523 1.161-8.608 1.32-6.429.328-13.715.702-17.777 6.285-4.032 5.54-2.156 12.547-.5 18.73.806 3.013 1.91 7.139 1.395 8.724-.454 1.398-3.791 4.084-6 5.86-5.089 4.094-10.857 8.734-10.857 15.815 0 6.928 5.52 11.517 10.523 15.546l-124.184 32.531h-63.568a42.19 42.19 0 0 0-42.13 41.482v94.394a42.207 42.207 0 0 0 34.306 40.72l32.11 105.423a20.404 20.404 0 0 0 19.627 14.539h18.262a20.517 20.517 0 0 0 20.371-22.969l-11.334-94.21 133.351 34.932v2.826a21.082 21.082 0 0 0 21.058 21.059h25.015a21.082 21.082 0 0 0 21.058-21.059V227.016c3.508 2.158 7.275 4.051 11.227 4.051a11.89 11.89 0 0 0 3.699-.584c6.641-2.156 9.256-9.022 11.561-15.08 1.088-2.855 2.576-6.766 3.831-7.68 1.297-.944 5.523-1.16 8.608-1.319 6.428-.329 13.714-.703 17.777-6.285 4.031-5.54 2.155-12.548.5-18.732-.807-3.011-1.91-7.137-1.395-8.722.454-1.399 3.79-4.083 6-5.86 5.088-4.094 10.856-8.734 10.856-15.815s-5.768-11.721-10.857-15.815ZM123.011 246.823v12.414h-12v-12.414a23.317 23.317 0 0 1 23.29-23.29h10.435v12h-10.434a11.303 11.303 0 0 0-11.29 11.29Zm73.614 233.936a8.41 8.41 0 0 1-6.373 2.866H171.99a8.471 8.471 0 0 1-8.148-6.035L133.02 376.402h53.935l11.753 97.688a8.411 8.411 0 0 1-2.084 6.669Zm136.015-79.785-134.224-35.161V209.698l123.358-32.316c-.298 1.355-.677 2.773-1.006 4.006-1.656 6.182-3.532 13.19.499 18.73 2.741 3.767 6.95 5.16 11.373 5.77Zm121.417-243.519c-4.097 3.296-8.333 6.703-9.893 11.505-1.61 4.963-.172 10.335 1.218 15.53.692 2.584 1.979 7.393 1.4 8.554-.93.978-5.984 1.237-8.7 1.376-5.345.274-10.873.557-15.054 3.601-4.138 3.012-6.093 8.146-7.984 13.112-.917 2.408-2.824 7.417-3.995 7.922-1.367.131-5.402-2.496-7.59-3.918-4.561-2.962-9.278-6.026-14.588-6.026s-10.026 3.064-14.587 6.027c-2.19 1.421-6.301 4.083-7.529 3.933-1.233-.52-3.14-5.531-4.057-7.938-1.891-4.966-3.846-10.1-7.984-13.112-4.181-3.043-9.709-3.327-15.054-3.601-2.716-.139-7.772-.399-8.673-1.337-.607-1.201.68-6.009 1.373-8.592 1.39-5.196 2.829-10.568 1.217-15.533-1.559-4.8-5.795-8.208-9.892-11.504-1.908-1.535-6.378-5.131-6.378-6.464s4.47-4.93 6.379-6.466c4.097-3.295 8.332-6.703 9.891-11.503 1.612-4.964.173-10.338-1.217-15.534-.692-2.582-1.979-7.389-1.4-8.552.93-.977 5.985-1.237 8.7-1.376 5.345-.274 10.873-.558 15.054-3.601 4.138-3.012 6.093-8.146 7.983-13.111.917-2.408 2.825-7.417 3.996-7.922a1.117 1.117 0 0 1 .116-.006c1.433 0 5.345 2.54 7.474 3.924 4.56 2.963 9.278 6.026 14.588 6.026s10.027-3.063 14.587-6.026c2.189-1.421 6.244-4.053 7.53-3.934 1.233.522 3.14 5.531 4.056 7.939 1.89 4.964 3.846 10.098 7.983 13.11 4.182 3.044 9.71 3.327 15.055 3.601 2.716.14 7.772.399 8.673 1.337.606 1.202-.682 6.01-1.373 8.593-1.39 5.195-2.83 10.568-1.218 15.532 1.56 4.8 5.795 8.208 9.892 11.503 1.909 1.536 6.379 5.132 6.379 6.466s-4.47 4.93-6.378 6.465ZM45.266 287.054v1.344a46.71 46.71 0 0 0 28.68 43.037v-87.418a46.71 46.71 0 0 0-28.68 43.037Z" fill="#ff6333" class="fill-000000"></path></svg>