<svg viewBox="0 0 32 32" xml:space="preserve" xmlns="http://www.w3.org/2000/svg" enable-background="new 0 0 32 32"><g id="Musik_icon"><path d="M25.5 28h-18c-.83 0-1.5.67-1.5 1.5S6.67 31 7.5 31h18c.83 0 1.5-.67 1.5-1.5s-.67-1.5-1.5-1.5zM21.38 27C27 24.83 31 19.37 31 13c0-.55-.45-1-1-1H2c-.55 0-1 .45-1 1 0 6.37 4 11.83 9.62 14h10.76zM26.42 11h1.56l2.93-6.59c.23-.51 0-1.1-.5-1.32-.51-.23-1.1 0-1.32.5l-2.16 4.86 1.05-5.25a.997.997 0 0 0-.78-1.18c-.54-.11-1.07.24-1.18.78L24.38 11h2.04zM10.29 9.29a.996.996 0 0 0 0 1.41c.2.2.45.3.71.3s.51-.1.71-.29c.24-.24 1.38-1.61.24-5.02-.68-2.04.38-2.72.51-2.8.48-.25.68-.84.43-1.33-.25-.49-.85-.7-1.34-.45-.96.48-2.51 2.19-1.5 5.21.73 2.18.23 2.97.24 2.97zM15.29 9.29a.996.996 0 0 0 0 1.41c.2.2.45.3.71.3s.51-.1.71-.29c.24-.24 1.38-1.61.24-5.02-.68-2.04.38-2.72.51-2.8.48-.25.68-.84.43-1.33-.25-.49-.85-.7-1.34-.45-.96.48-2.51 2.19-1.5 5.21.73 2.18.23 2.97.24 2.97zM20.29 9.29a.996.996 0 0 0 0 1.41c.2.2.45.3.71.3s.51-.1.71-.29c.24-.24 1.38-1.61.24-5.02-.68-2.04.38-2.72.51-2.8.48-.25.68-.84.43-1.33-.25-.49-.85-.7-1.34-.45-.96.48-2.51 2.19-1.5 5.21.73 2.18.23 2.97.24 2.97z" fill="#ff6333" class="fill-000000"></path></g></svg>